<svg width="28" height="28" viewBox="0 0 28 28" fill="none" xmlns="http://www.w3.org/2000/svg">
<g clip-path="url(#clip0_1506_16104)">
<path d="M18.5158 17.7917L14.5841 15.4583V10.1733C14.5841 9.70667 14.2108 9.33333 13.7441 9.33333H13.6741C13.2074 9.33333 12.8341 9.70667 12.8341 10.1733V15.68C12.8341 16.0883 13.0441 16.4733 13.4058 16.6833L17.6641 19.2383C18.0608 19.4717 18.5741 19.355 18.8074 18.9583C19.0524 18.55 18.9241 18.025 18.5158 17.7917ZM24.7108 5.845L21.1174 2.85833C20.6274 2.45 19.8924 2.50833 19.4724 3.01C19.0641 3.5 19.1341 4.235 19.6241 4.655L23.2058 7.64167C23.6958 8.05 24.4308 7.99167 24.8508 7.49C25.2708 7 25.2008 6.265 24.7108 5.845ZM4.78411 7.64167L8.36578 4.655C8.86745 4.235 8.93745 3.5 8.51745 3.01C8.10911 2.50833 7.37411 2.45 6.88411 2.85833L3.29078 5.845C2.80078 6.265 2.73078 7 3.15078 7.49C3.55911 7.99167 4.29411 8.05 4.78411 7.64167ZM14.0008 4.66667C8.20245 4.66667 3.50078 9.36833 3.50078 15.1667C3.50078 20.965 8.20245 25.6667 14.0008 25.6667C19.7991 25.6667 24.5008 20.965 24.5008 15.1667C24.5008 9.36833 19.7991 4.66667 14.0008 4.66667ZM14.0008 23.3333C9.49745 23.3333 5.83411 19.67 5.83411 15.1667C5.83411 10.6633 9.49745 7 14.0008 7C18.5041 7 22.1674 10.6633 22.1674 15.1667C22.1674 19.67 18.5041 23.3333 14.0008 23.3333Z" fill="#5177FF"/>
</g>
<defs>
<clipPath id="clip0_1506_16104">
<rect width="28" height="28" fill="white"/>
</clipPath>
</defs>
</svg>
