<svg width="58" height="58" viewBox="0 0 58 58" fill="none" xmlns="http://www.w3.org/2000/svg">
<g filter="url(#filter0_d_1567_15965)">
<rect x="8" y="8" width="42" height="42" rx="12" fill="#86B6FF" shape-rendering="crispEdges"/>
<path d="M23.3569 32.926H29.4609V31.582H25.6109L26.7449 30.42C27.9209 29.202 29.3769 27.676 29.3769 25.968C29.3769 24.232 28.2989 23.224 26.1989 23.224C25.0929 23.224 24.1129 23.574 23.4689 23.952L23.7489 25.226C24.2809 24.904 25.0649 24.582 25.7369 24.582C26.9549 24.582 27.5849 25.03 27.5849 26.192C27.5849 27.396 26.5209 28.586 25.1909 29.986L23.3569 31.918V32.926ZM32.2631 32.982H33.9991V23.308H33.0891L30.6531 24.4V25.408L32.2631 25.086V32.982Z" fill="black"/>
</g>
<path d="M29 47C38.9411 47 47 38.9411 47 29C47 19.0589 38.9411 11 29 11C19.0589 11 11 19.0589 11 29C11 38.9411 19.0589 47 29 47Z" fill="#86B6FF"/>
<path d="M21.6121 20.1822C21.6121 20.3254 21.6121 20.5132 21.59 20.7424C21.5679 20.9715 21.5605 21.2197 21.5421 21.4998C21.5237 21.7799 21.5016 22.0648 21.4739 22.3704C21.4463 22.6759 21.4186 22.9751 21.391 23.2695C21.3271 23.9602 21.2534 24.6991 21.1699 25.4863C21.172 25.7113 21.0998 25.9321 20.9617 26.1229C20.8219 26.3126 20.6381 26.4751 20.4219 26.6003C20.1966 26.7334 19.9477 26.8339 19.6849 26.8978C19.4153 26.9644 19.1363 26.9987 18.8559 26.9997C18.6207 27.0009 18.3865 26.9746 18.1594 26.9217C17.9469 26.8747 17.7456 26.7961 17.5643 26.6894C17.3908 26.5871 17.2485 26.4501 17.1498 26.29C17.0433 26.1071 16.9914 25.9042 16.9987 25.6996C16.9989 25.602 17.0082 25.5046 17.0264 25.4083C17.0485 25.3008 17.078 25.1945 17.1148 25.09C17.2401 24.7097 17.3856 24.2944 17.5496 23.8329C17.7136 23.3713 17.8812 22.9209 18.0489 22.469C18.2165 22.017 18.3842 21.5842 18.5426 21.1752C18.7011 20.7662 18.8448 20.4193 18.9719 20.1328C19.0908 19.797 19.3238 19.4998 19.6407 19.2799C19.8891 19.1064 20.1965 19.008 20.5159 18.9998C20.6613 18.9998 20.8051 19.0259 20.9382 19.0763C21.0714 19.1267 21.1911 19.2003 21.2897 19.2925C21.4092 19.4148 21.4993 19.5565 21.5547 19.7093C21.6101 19.862 21.6296 20.0228 21.6121 20.1822ZM26.9919 20.1822C26.9919 20.3254 26.9919 20.5132 26.9716 20.7424C26.9514 20.9715 26.9422 21.2197 26.9237 21.4998C26.9053 21.7799 26.8814 22.0648 26.8537 22.3704C26.8261 22.6759 26.7985 22.9751 26.7708 23.2695C26.707 23.9602 26.6339 24.6991 26.5516 25.4863C26.5537 25.7113 26.4815 25.9321 26.3434 26.1229C26.2031 26.3122 26.0194 26.4747 25.8036 26.6003C25.5782 26.7334 25.3293 26.8339 25.0666 26.8978C24.7963 26.9645 24.5167 26.9988 24.2357 26.9997C24.0005 27.0007 23.7663 26.9744 23.5393 26.9217C23.327 26.8741 23.1257 26.7955 22.9441 26.6894C22.7716 26.5866 22.6301 26.4497 22.5315 26.29C22.4244 26.1072 22.3718 25.9043 22.3785 25.6996C22.3794 25.602 22.3892 25.5046 22.408 25.4083C22.4295 25.3008 22.4584 25.1945 22.4946 25.09C22.6217 24.7097 22.7654 24.2944 22.9313 23.8329C23.0971 23.3713 23.261 22.9209 23.4305 22.469C23.6 22.017 23.764 21.5842 23.9243 21.1752C24.0846 20.7662 24.2265 20.4193 24.3517 20.1328C24.4711 19.7968 24.7048 19.4996 25.0224 19.2799C25.2707 19.1062 25.5782 19.0077 25.8975 18.9998C26.0429 18.9998 26.1867 19.0259 26.3199 19.0763C26.4531 19.1267 26.5727 19.2003 26.6713 19.2925C26.7902 19.4152 26.8798 19.557 26.9348 19.7097C26.9898 19.8624 27.0092 20.023 26.9919 20.1822Z" fill="#211815"/>
<path d="M22.324 32.9994C21.4099 33.0105 20.5005 32.8747 19.6351 32.5979C19.3908 32.5095 19.1938 32.3337 19.0874 32.1091C18.9809 31.8845 18.9737 31.6294 19.0673 31.3999C19.1611 31.1709 19.3477 30.9862 19.5861 30.886C19.8246 30.7858 20.0956 30.7783 20.3399 30.8651C20.4969 30.92 23.9758 32.082 27.3545 29.2374C27.451 29.156 27.5636 29.0932 27.6859 29.0527C27.8082 29.0122 27.9379 28.9948 28.0674 29.0013C28.1969 29.0079 28.3238 29.0383 28.4407 29.0909C28.5577 29.1435 28.6625 29.2173 28.7491 29.308C28.8358 29.3986 28.9026 29.5043 28.9458 29.6192C28.9889 29.734 29.0075 29.8557 29.0005 29.9773C28.9935 30.0989 28.9611 30.218 28.9051 30.3278C28.849 30.4376 28.7705 30.536 28.6739 30.6173C26.3959 32.5351 24.0543 32.9994 22.324 32.9994Z" fill="#211815"/>
<defs>
<filter id="filter0_d_1567_15965" x="0" y="0" width="58" height="58" filterUnits="userSpaceOnUse" color-interpolation-filters="sRGB">
<feFlood flood-opacity="0" result="BackgroundImageFix"/>
<feColorMatrix in="SourceAlpha" type="matrix" values="0 0 0 0 0 0 0 0 0 0 0 0 0 0 0 0 0 0 127 0" result="hardAlpha"/>
<feOffset/>
<feGaussianBlur stdDeviation="4"/>
<feComposite in2="hardAlpha" operator="out"/>
<feColorMatrix type="matrix" values="0 0 0 0 0 0 0 0 0 0 0 0 0 0 0 0 0 0 0.25 0"/>
<feBlend mode="normal" in2="BackgroundImageFix" result="effect1_dropShadow_1567_15965"/>
<feBlend mode="normal" in="SourceGraphic" in2="effect1_dropShadow_1567_15965" result="shape"/>
</filter>
</defs>
</svg>
