<svg xmlns="http://www.w3.org/2000/svg" viewBox="0 0 97.5 101.5"><defs><style>.cls-1{fill:#fff;}.cls-2{fill:#86b6ff;}.cls-3{fill:#211815;}.cls-4{fill:none;}</style></defs><g id="레이어_2" data-name="레이어 2"><g id="레이어_1-2" data-name="레이어 1"><path class="cls-1" d="M41.578,70.724,27.7,88.745a3.423,3.423,0,0,1-4.988-.137l-7.74-5.962s-2.5-2.388-.485-5,5.1-3.017,7.136-1.45l7.612-9.882,2.462-3.2Z"/><path class="cls-2" d="M25.281,91.709a5.592,5.592,0,0,1-3.825-1.62l-7.751-5.97-.074-.071a5.613,5.613,0,0,1-.682-7.589A7.187,7.187,0,0,1,21.091,73.7l10.251-13.31L44.3,70.371,29.094,90.09A5.44,5.44,0,0,1,25.281,91.709ZM16.262,81.194l7.708,5.937.07.066c.8.754,1.545.835,2.217.242l12.6-16.362-6.811-5.246L21.975,78.911l-1.536-1.183c-1.3-1-3.158-.54-4.418,1.1A1.741,1.741,0,0,0,16.262,81.194Z"/><path class="cls-1" d="M61.624,62.843,80.558,75.449a3.422,3.422,0,0,1,.207,4.985l-5.414,8.133s-2.211,2.658-4.96.828-3.36-4.882-1.937-7.02L58.071,75.462l-3.36-2.236Z"/><path class="cls-2" d="M72.365,91.989a5.438,5.438,0,0,1-3.048-.98,7.834,7.834,0,0,1-3.338-4.533,6.491,6.491,0,0,1,.036-3.4L52.024,73.765l9.061-13.61L81.8,73.964a5.315,5.315,0,0,1,.524,7.62l-5.421,8.143-.066.079A6.136,6.136,0,0,1,72.365,91.989ZM57.4,72.686l13.743,9.15L70.067,83.45a2.567,2.567,0,0,0-.33,2.075,3.981,3.981,0,0,0,1.729,2.257,1.741,1.741,0,0,0,2.338-.39l5.4-8.112.061-.075c.7-.85.727-1.6.089-2.229L62.164,65.531Z"/><path class="cls-1" d="M7.563,32.2S.547,35.012,9.806,46.5c0,0,6.388,8.377,9.893,9.624a1.319,1.319,0,0,1,.347.176h0A1.248,1.248,0,0,0,21.9,55.83l3.712-7.637a1.248,1.248,0,0,0-.437-1.587A33.594,33.594,0,0,1,20.2,42.117a38.974,38.974,0,0,1-4.55-5.945C14.294,34.019,11.285,30.3,7.563,32.2Z"/><path class="cls-2" d="M20.775,58.471A3.172,3.172,0,0,1,19,57.927c-1.778-.653-4.067-2.546-7-5.786-1.979-2.188-3.533-4.2-3.719-4.448-4.2-5.212-5.868-9.607-4.966-13.063a6.349,6.349,0,0,1,3.423-4.188c3.671-1.832,7.514-.124,10.552,4.7a37.2,37.2,0,0,0,4.322,5.651,32.329,32.329,0,0,0,4.635,4.2,3.2,3.2,0,0,1,1.108,4.049l-3.713,7.638a3.192,3.192,0,0,1-2.867,1.793Zm.4-3.748h0ZM8.3,33.993a2.5,2.5,0,0,0-1.248,1.688c-.294,1.245-.13,4.146,4.266,9.6l.032.04c2.51,3.29,6.961,8.248,9,8.973l.12.045,3.141-6.462a38.8,38.8,0,0,1-4.822-4.431,41.122,41.122,0,0,1-4.778-6.239c-2.538-4.029-4.577-3.784-5.567-3.281Z"/><path class="cls-1" d="M91.005,34.58s6.482,3.889-4.478,13.763c0,0-7.634,7.261-11.293,7.936a1.4,1.4,0,0,0-.37.119h0a1.248,1.248,0,0,1-1.756-.752l-2.456-8.129a1.248,1.248,0,0,1,.683-1.5,33.589,33.589,0,0,0,5.622-3.645,38.92,38.92,0,0,0,5.433-5.15C84.07,35.314,87.629,32.119,91.005,34.58Z"/><path class="cls-2" d="M74.3,58.471a3.19,3.19,0,0,1-3.05-2.265L68.8,48.078a3.2,3.2,0,0,1,1.734-3.823,32.393,32.393,0,0,0,5.243-3.416,37.241,37.241,0,0,0,5.162-4.895c3.762-4.278,7.826-5.357,11.161-2.966a6.339,6.339,0,0,1,2.718,4.676c.344,3.556-2,7.631-6.971,12.113-.223.211-2.076,1.956-4.377,3.8-3.406,2.735-5.967,4.242-7.825,4.6A3.175,3.175,0,0,1,74.3,58.471ZM72.678,47.52,74.757,54.4c.041-.01.084-.018.127-.026,2.128-.393,7.308-4.584,10.307-7.434l.038-.036c5.2-4.687,5.825-7.526,5.732-8.8a2.5,2.5,0,0,0-.97-1.867l-.1-.054-.028-.033c-.9-.655-2.873-1.218-6.017,2.357a41.088,41.088,0,0,1-5.7,5.405A38.768,38.768,0,0,1,72.678,47.52Z"/><circle class="cls-2" cx="47.62" cy="48.878" r="32.244"/><path class="cls-3" d="M32.867,33.865q0,.4-.033,1.049c-.022.432-.049.905-.078,1.419s-.067,1.057-.112,1.63-.089,1.135-.134,1.686q-.156,1.944-.357,4.154a2.222,2.222,0,0,1-.336,1.206,3.058,3.058,0,0,1-.873.905,4.067,4.067,0,0,1-1.209.558,4.907,4.907,0,0,1-1.344.19,4.315,4.315,0,0,1-1.127-.145,3.111,3.111,0,0,1-.963-.436,2.086,2.086,0,0,1-.669-.748,2.3,2.3,0,0,1-.247-1.1,3.344,3.344,0,0,1,.047-.548,4.911,4.911,0,0,1,.141-.591q.306-1.072.7-2.357t.81-2.557q.411-1.273.8-2.423t.693-1.954a3.294,3.294,0,0,1,1.084-1.6,2.36,2.36,0,0,1,1.418-.524,1.7,1.7,0,0,1,1.25.547A2.256,2.256,0,0,1,32.867,33.865Zm8.711,0q0,.4-.033,1.049t-.079,1.419q-.045.769-.111,1.63t-.134,1.686q-.157,1.944-.358,4.154a2.222,2.222,0,0,1-.336,1.206,3.058,3.058,0,0,1-.873.905,4.056,4.056,0,0,1-1.209.558,4.9,4.9,0,0,1-1.343.19,4.315,4.315,0,0,1-1.127-.145,3.111,3.111,0,0,1-.963-.436,2.1,2.1,0,0,1-.67-.748,2.3,2.3,0,0,1-.246-1.1,3.237,3.237,0,0,1,.047-.548,4.728,4.728,0,0,1,.141-.591q.3-1.072.7-2.357t.81-2.557q.411-1.273.8-2.423T37.29,33.8a3.3,3.3,0,0,1,1.083-1.6,2.362,2.362,0,0,1,1.418-.524,1.7,1.7,0,0,1,1.251.547A2.261,2.261,0,0,1,41.578,33.865Z"/><path class="cls-3" d="M33.3,56.986a14.357,14.357,0,0,1-4.8-.762,1.764,1.764,0,0,1,1.259-3.295c.283.106,6.494,2.315,12.526-3.1a1.763,1.763,0,1,1,2.355,2.624A16.691,16.691,0,0,1,33.3,56.986Z"/><rect class="cls-4" width="97.5" height="101.5"/></g></g></svg>