<svg xmlns="http://www.w3.org/2000/svg" viewBox="0 0 97.5 101.5"><defs><style>.cls-1{fill:#fff;}.cls-2{fill:#86b6ff;}.cls-3{fill:#9dff88;}.cls-4{fill:#211815;}.cls-5{fill:none;}</style></defs><g id="레이어_2" data-name="레이어 2"><g id="레이어_1-2" data-name="레이어 1"><path class="cls-1" d="M39.073,43.95S34.484,45.791,40.54,53.3c0,0,4.179,5.481,6.472,6.3a.9.9,0,0,1,.227.115h0a.816.816,0,0,0,1.212-.3l2.429-5a.818.818,0,0,0-.286-1.039,21.973,21.973,0,0,1-3.254-2.936,25.482,25.482,0,0,1-2.976-3.889C43.476,45.142,41.508,42.71,39.073,43.95Z"/><path class="cls-2" d="M47.716,61.137a2.076,2.076,0,0,1-1.162-.356c-1.163-.427-2.661-1.666-4.578-3.785-1.3-1.431-2.312-2.751-2.433-2.909C36.8,50.677,35.7,47.8,36.3,45.541A4.144,4.144,0,0,1,38.534,42.8c2.4-1.2,4.915-.082,6.9,3.072a24.332,24.332,0,0,0,2.828,3.7A21.058,21.058,0,0,0,51.3,52.319a2.093,2.093,0,0,1,.724,2.649l-2.428,5a2.086,2.086,0,0,1-1.876,1.173Zm.265-2.452h0Zm-8.427-13.56a1.635,1.635,0,0,0-.817,1.1c-.192.814-.085,2.712,2.791,6.279l.021.026c1.641,2.152,4.554,5.4,5.888,5.87.027.01.053.019.079.03l2.055-4.228a25.341,25.341,0,0,1-3.155-2.9,26.918,26.918,0,0,1-3.125-4.082c-1.661-2.635-2.995-2.475-3.642-2.146Z"/><path class="cls-1" d="M37.787,71.893s3.161-.981-.475-6.319c0,0-2.492-3.88-3.978-4.548a.583.583,0,0,1-.145-.089h0a.547.547,0,0,0-.825.138l-1.889,3.2a.547.547,0,0,0,.135.708,14.646,14.646,0,0,1,2.012,2.134A17.007,17.007,0,0,1,34.4,69.874C34.914,70.861,36.1,72.589,37.787,71.893Z"/><path class="cls-3" d="M33.6,60.43h0a8.976,8.976,0,0,1,2.8,2.722c.788,1.026,1.394,1.96,1.459,2.061,1.612,2.369,2.179,4.288,1.684,5.7a2.606,2.606,0,0,1-1.53,1.589c-1.561.628-3.088-.22-4.191-2.33a16.483,16.483,0,0,0-1.708-2.649A14.073,14.073,0,0,0,30.206,65.5a1.2,1.2,0,0,1-.293-1.553l1.889-3.2a1.2,1.2,0,0,1,1.317-.555A1.184,1.184,0,0,1,33.6,60.43Zm.013.011Zm-.481,6.271a17.809,17.809,0,0,1,1.845,2.859c.445.852,1.37,2.209,2.562,1.718l.045-.016a1.3,1.3,0,0,0,.733-.812c.436-1.319-.78-3.4-1.544-4.519l-.01-.015c-.924-1.437-2.744-3.878-3.7-4.305a1.349,1.349,0,0,1-.2-.112l-1.781,3.019A15.7,15.7,0,0,1,33.132,66.712Z"/><path class="cls-1" d="M61.466,67.371l-8.5,12.215a2.239,2.239,0,0,1-3.264.068L44.459,76a2.475,2.475,0,0,1-.476-3.254A3.307,3.307,0,0,1,48.6,71.577l4.66-6.7,1.508-2.167Z"/><path class="cls-2" d="M49.43,80.673c-.107-.074-.213-.155-.32-.244l-5.29-3.688a3.384,3.384,0,0,1-.637-4.548,4.383,4.383,0,0,1,5.1-1.876l6.236-8.964,8.3,5.774L53.7,80.228A3.165,3.165,0,0,1,49.43,80.673Zm-4.36-5.431,5.269,3.671a1.249,1.249,0,0,0,1.87.056l7.9-11.354-5.1-3.546-6.168,8.865-.8-.557a2.367,2.367,0,0,0-3.259.93A1.453,1.453,0,0,0,45.07,75.242Z"/><path class="cls-1" d="M75.74,63.311,86.4,73.7a2.238,2.238,0,0,1-.468,3.23l-4.461,4.577a2.476,2.476,0,0,1-3.289-.065,3.308,3.308,0,0,1-.4-4.747L71.935,71l-1.891-1.842Z"/><path class="cls-2" d="M80.187,83.078a3.142,3.142,0,0,1-2.691-.94,4.829,4.829,0,0,1-1.512-3.125,3.945,3.945,0,0,1,.5-2.217l-7.821-7.625,7.058-7.24L87.149,73.079a3.194,3.194,0,0,1-.556,4.563l-4.505,4.614A3.914,3.914,0,0,1,80.187,83.078ZM71.424,69.136l7.733,7.539-.681.7a1.964,1.964,0,0,0-.545,1.517,2.892,2.892,0,0,0,.927,1.85,1.453,1.453,0,0,0,1.956.035L85.3,76.182a1.25,1.25,0,0,0,.362-1.836l-9.9-9.656Z"/><path class="cls-3" d="M21.643,32.452a2.2,2.2,0,0,0-3.136-3.08.164.164,0,0,1-.227,0,2.2,2.2,0,0,0-3.135,3.08.163.163,0,0,1,0,.222,2.2,2.2,0,0,0,3.135,3.08.164.164,0,0,1,.227,0,2.2,2.2,0,0,0,3.136-3.08A.163.163,0,0,1,21.643,32.452Z"/><path class="cls-3" d="M9.071,46.189a1.5,1.5,0,0,0-2.141-2.1.111.111,0,0,1-.155,0,1.5,1.5,0,0,0-2.14,2.1.11.11,0,0,1,0,.151,1.5,1.5,0,0,0,2.14,2.1.111.111,0,0,1,.155,0,1.5,1.5,0,0,0,2.141-2.1A.11.11,0,0,1,9.071,46.189Z"/><path class="cls-3" d="M86.182,27.132a2.147,2.147,0,0,0-3.062-3.007.161.161,0,0,1-.222,0,2.147,2.147,0,0,0-3.062,3.007.159.159,0,0,1,0,.217A2.147,2.147,0,0,0,82.9,30.356a.161.161,0,0,1,.222,0,2.147,2.147,0,0,0,3.062-3.007A.159.159,0,0,1,86.182,27.132Z"/><path class="cls-3" d="M70.091,20.7a1.377,1.377,0,0,0-1.964-1.928.1.1,0,0,1-.142,0A1.377,1.377,0,0,0,66.021,20.7a.1.1,0,0,1,0,.14,1.377,1.377,0,0,0,1.964,1.928.1.1,0,0,1,.142,0,1.377,1.377,0,0,0,1.964-1.928A.1.1,0,0,1,70.091,20.7Z"/><path class="cls-3" d="M41.117,37.314a1.377,1.377,0,0,0-1.964-1.929.1.1,0,0,1-.142,0,1.377,1.377,0,0,0-1.963,1.929.1.1,0,0,1,0,.139,1.377,1.377,0,0,0,1.963,1.929.1.1,0,0,1,.142,0,1.377,1.377,0,0,0,1.964-1.929A.1.1,0,0,1,41.117,37.314Z"/><circle class="cls-2" cx="65.681" cy="52.852" r="21.093"/><path class="cls-4" d="M56.651,42.346q0,.29-.024.755t-.056,1.021c-.022.369-.048.761-.081,1.173s-.064.817-.1,1.213q-.112,1.4-.257,2.989a1.6,1.6,0,0,1-.242.868,2.2,2.2,0,0,1-.628.651,2.937,2.937,0,0,1-.87.4,3.545,3.545,0,0,1-.967.137,3.1,3.1,0,0,1-.811-.1,2.235,2.235,0,0,1-.693-.313,1.516,1.516,0,0,1-.482-.539,1.656,1.656,0,0,1-.177-.8,2.322,2.322,0,0,1,.034-.394,3.605,3.605,0,0,1,.1-.426q.221-.771.507-1.7t.583-1.841q.3-.915.575-1.743t.5-1.406a2.367,2.367,0,0,1,.78-1.15,1.7,1.7,0,0,1,1.02-.377,1.219,1.219,0,0,1,.9.394A1.62,1.62,0,0,1,56.651,42.346Zm6.268,0q0,.29-.024.755t-.056,1.021c-.022.369-.049.761-.081,1.173s-.064.817-.1,1.213q-.112,1.4-.257,2.989a1.6,1.6,0,0,1-.242.868,2.2,2.2,0,0,1-.628.651,2.937,2.937,0,0,1-.87.4,3.545,3.545,0,0,1-.967.137,3.093,3.093,0,0,1-.811-.1,2.235,2.235,0,0,1-.693-.313,1.516,1.516,0,0,1-.482-.539,1.656,1.656,0,0,1-.177-.8,2.322,2.322,0,0,1,.034-.394,3.418,3.418,0,0,1,.1-.426q.221-.771.507-1.7t.583-1.841q.3-.915.575-1.743t.5-1.406a2.367,2.367,0,0,1,.78-1.15,1.7,1.7,0,0,1,1.02-.377,1.219,1.219,0,0,1,.9.394A1.624,1.624,0,0,1,62.919,42.346Z"/><path class="cls-4" d="M56.959,58.984a10.3,10.3,0,0,1-3.455-.549,1.268,1.268,0,0,1,.905-2.37,9.158,9.158,0,0,0,9.014-2.23,1.269,1.269,0,0,1,1.694,1.889A12.01,12.01,0,0,1,56.959,58.984Z"/><path class="cls-1" d="M24.614,69.163V79.318a1.528,1.528,0,0,0,1.8,1.31h4.361a1.689,1.689,0,0,0,1.535-1.638,2.258,2.258,0,0,0-2.129-2.457v-7.37Z"/><path class="cls-3" d="M23.953,79.391l0-10.894h6.9V75.95a2.992,2.992,0,0,1,2.129,3.04,2.311,2.311,0,0,1-2.13,2.3l-4.4,0c-.094.008-.185.012-.274.012A2.16,2.16,0,0,1,23.953,79.391Zm7.693-.4A1.615,1.615,0,0,0,30.183,77.2h-.666v-7.37H25.28v9.439c.045.262.24.781,1.07.7l4.382,0A.991.991,0,0,0,31.646,78.99Z"/><path class="cls-1" d="M14.212,69.163V79.318a1.528,1.528,0,0,0,1.8,1.31h4.361A1.689,1.689,0,0,0,21.91,78.99a2.258,2.258,0,0,0-2.129-2.457v-7.37Z"/><path class="cls-3" d="M13.551,79.391l0-10.894h6.9V75.95a2.991,2.991,0,0,1,2.13,3.04,2.311,2.311,0,0,1-2.13,2.3l-4.4,0c-.094.008-.186.012-.274.012A2.16,2.16,0,0,1,13.551,79.391Zm7.693-.4A1.615,1.615,0,0,0,19.781,77.2h-.666v-7.37H14.878v9.439c.045.262.24.781,1.07.7l4.382,0A.991.991,0,0,0,21.244,78.99Z"/><circle class="cls-3" cx="22.455" cy="60.154" r="14.576"/><path class="cls-4" d="M28.879,52.09a.846.846,0,0,1,.622-.272,1.172,1.172,0,0,1,.7.261,1.642,1.642,0,0,1,.539.794q.151.4.344.972t.4,1.2q.206.633.4,1.272t.35,1.172a2.309,2.309,0,0,1,.071.294,1.7,1.7,0,0,1,.023.272,1.143,1.143,0,0,1-.123.55,1.034,1.034,0,0,1-.332.372,1.56,1.56,0,0,1-.479.216,2.121,2.121,0,0,1-.561.073,2.444,2.444,0,0,1-.668-.095,2.006,2.006,0,0,1-.6-.278,1.521,1.521,0,0,1-.434-.449,1.1,1.1,0,0,1-.167-.6q-.1-1.1-.178-2.066-.033-.411-.067-.838c-.022-.285-.04-.556-.055-.811s-.028-.491-.039-.7-.017-.389-.017-.522A1.124,1.124,0,0,1,28.879,52.09Zm-4.332,0a.848.848,0,0,1,.622-.272,1.177,1.177,0,0,1,.706.261,1.641,1.641,0,0,1,.538.794c.1.267.216.591.345.972s.261.783.4,1.2.271.846.4,1.272.249.816.35,1.172a2.3,2.3,0,0,1,.07.294A1.594,1.594,0,0,1,28,58.06a1.143,1.143,0,0,1-.122.55,1.046,1.046,0,0,1-.333.372,1.55,1.55,0,0,1-.479.216,2.113,2.113,0,0,1-.56.073,2.439,2.439,0,0,1-.668-.095,2.006,2.006,0,0,1-.6-.278,1.524,1.524,0,0,1-.435-.449,1.111,1.111,0,0,1-.167-.6q-.1-1.1-.177-2.066-.034-.411-.067-.838c-.022-.285-.041-.556-.056-.811s-.027-.491-.039-.7-.016-.389-.016-.522A1.128,1.128,0,0,1,24.547,52.09Z"/><ellipse class="cls-4" cx="28.612" cy="62.511" rx="1.428" ry="1.598"/><path class="cls-1" d="M6.413,71.893s-3.161-.981.475-6.319c0,0,2.492-3.88,3.978-4.548a.583.583,0,0,0,.145-.089h0a.547.547,0,0,1,.825.138l1.889,3.2a.546.546,0,0,1-.135.708,14.7,14.7,0,0,0-2.012,2.134A17.075,17.075,0,0,0,9.8,69.874C9.286,70.861,8.1,72.589,6.413,71.893Z"/><path class="cls-3" d="M11.081,60.188a1.2,1.2,0,0,1,1.317.555l1.889,3.2a1.2,1.2,0,0,1-.293,1.553,14.129,14.129,0,0,0-1.906,2.029,16.411,16.411,0,0,0-1.707,2.649c-1.1,2.11-2.63,2.958-4.192,2.33a2.606,2.606,0,0,1-1.53-1.589c-.494-1.415.072-3.334,1.685-5.7.065-.1.671-1.035,1.458-2.061a8.976,8.976,0,0,1,2.8-2.722h0A1.19,1.19,0,0,1,11.081,60.188Zm-.494.253Zm2.529,4.088L11.335,61.51a1.3,1.3,0,0,1-.2.112c-.952.427-2.772,2.868-3.7,4.305l-.01.015c-.763,1.121-1.98,3.2-1.544,4.519a1.293,1.293,0,0,0,.734.812l.045.016c1.191.491,2.116-.866,2.562-1.718a17.737,17.737,0,0,1,1.844-2.859A15.7,15.7,0,0,1,13.116,64.529Z"/><path class="cls-1" d="M90.305,41.459s4.813,1.135-.055,9.468c0,0-3.315,6.042-5.46,7.19a.9.9,0,0,0-.208.148h0a.815.815,0,0,1-1.243-.12l-3.147-4.578a.816.816,0,0,1,.127-1.069,22,22,0,0,0,2.78-3.389,25.533,25.533,0,0,0,2.362-4.29C86.129,43.294,87.712,40.6,90.305,41.459Z"/><path class="cls-2" d="M84.645,59.668a2.084,2.084,0,0,1-2.351-.8l-3.147-4.578a2.1,2.1,0,0,1,.32-2.727,21.1,21.1,0,0,0,2.589-3.171A24.4,24.4,0,0,0,84.3,44.311c1.494-3.415,3.813-4.9,6.366-4.068a4.149,4.149,0,0,1,2.624,2.374c.921,2.148.269,5.154-1.937,8.935-.1.176-.905,1.632-1.972,3.24-1.579,2.382-2.875,3.83-3.961,4.426A2.077,2.077,0,0,1,84.645,59.668Zm-3.19-6.5,2.663,3.874L84.192,57c1.248-.668,3.644-4.31,4.946-6.682l.017-.03c2.311-3.956,2.134-5.849,1.822-6.625A1.632,1.632,0,0,0,90,42.691l-.072-.014-.025-.015c-.689-.229-2.032-.188-3.281,2.666a26.89,26.89,0,0,1-2.481,4.5A25.284,25.284,0,0,1,81.455,53.166Z"/><rect class="cls-5" width="97.5" height="101.5"/></g></g></svg>