<svg xmlns="http://www.w3.org/2000/svg" viewBox="0 0 97.5 101.5"><defs><style>.cls-1{fill:#fff;}.cls-2{fill:#ff8b88;}.cls-3{fill:#211815;}.cls-4{fill:none;}</style></defs><g id="레이어_2" data-name="레이어 2"><g id="레이어_1-2" data-name="레이어 1"><path class="cls-1" d="M90,49.73s.886,7.7-13.993,4.955c0,0-10.675-1.674-13.51-4.228a1.373,1.373,0,0,0-.328-.227h0a1.28,1.28,0,0,1-.484-1.9l5.078-7.076a1.281,1.281,0,0,1,1.645-.38,34.474,34.474,0,0,0,6.477,2.3,39.921,39.921,0,0,0,7.583,1.2C85.071,44.548,89.893,45.447,90,49.73Z"/><path class="cls-2" d="M75.748,56.193c-.278-.044-2.853-.46-5.8-1.178-4.311-1.052-7.082-2.169-8.484-3.425a2.809,2.809,0,0,1-1.027-4.15l5.078-7.076a2.821,2.821,0,0,1,3.6-.84,33.066,33.066,0,0,0,6.151,2.169,38.609,38.609,0,0,0,7.294,1.155c5.566.371,8.827,2.842,8.958,6.783a6.114,6.114,0,0,1-1.962,4.783c-1.7,1.592-4.329,2.391-7.834,2.391A33.382,33.382,0,0,1,75.748,56.193Zm12.723-6.425c-.076-3.017-3.858-3.718-6.105-3.868a41.694,41.694,0,0,1-7.874-1.25,36.894,36.894,0,0,1-6.614-2.327L63.09,48.994a2.98,2.98,0,0,1,.43.327c1.817,1.637,8.769,3.232,12.724,3.854l.04.006c3.126.578,8.731,1.22,11.147-.96a3.033,3.033,0,0,0,1.047-2.334Z"/><path class="cls-1" d="M50.286,64.179l1,23.308a3.51,3.51,0,0,0,4.265,2.83l10.011-.431s3.507-.527,3.361-3.911-2.5-5.542-5.13-5.429l-.55-12.782-.178-4.135Z"/><path class="cls-2" d="M49.778,87.721,48.692,62.716l15.838-.681.737,17.111a6.17,6.17,0,0,1,3.115,1.729,7.576,7.576,0,0,1,2.072,5.034A5.306,5.306,0,0,1,65.793,91.4l-10.1.444a6.854,6.854,0,0,1-.906.062A4.951,4.951,0,0,1,49.778,87.721Zm17.62-1.68A4.528,4.528,0,0,0,66.2,83.023a3.085,3.085,0,0,0-2.342-.949l-1.528.066-.728-16.918-9.726.419.932,21.667c.13.6.627,1.769,2.524,1.495l10.069-.441A2.263,2.263,0,0,0,67.4,86.041Z"/><path class="cls-1" d="M25.508,64.005V87.336a3.512,3.512,0,0,0,4.14,3.01h10.02s3.526-.376,3.526-3.763-2.258-5.644-4.892-5.644V64.005Z"/><path class="cls-2" d="M23.988,87.5l-.009-25.028H39.832V79.6c2.873.727,4.892,3.489,4.892,6.986a5.308,5.308,0,0,1-4.893,5.284l-10.111.008c-.217.02-.427.029-.631.029A4.965,4.965,0,0,1,23.988,87.5Zm17.677-.921c0-2.346-1.446-4.115-3.363-4.115H36.773V65.535H27.038V87.222c.1.6.551,1.793,2.457,1.6l10.069-.007A2.278,2.278,0,0,0,41.665,86.583Z"/><circle class="cls-2" cx="44.747" cy="46.668" r="33.071"/><path class="cls-3" d="M59.64,28.555a1.915,1.915,0,0,1,1.411-.618,2.665,2.665,0,0,1,1.6.592,3.718,3.718,0,0,1,1.223,1.8q.345.908.781,2.205t.9,2.734q.463,1.437.914,2.885t.8,2.659a5.4,5.4,0,0,1,.159.667,3.66,3.66,0,0,1,.053.618,2.6,2.6,0,0,1-.278,1.247,2.36,2.36,0,0,1-.755.844,3.5,3.5,0,0,1-1.087.492,4.883,4.883,0,0,1-1.271.163,5.539,5.539,0,0,1-1.516-.214A4.568,4.568,0,0,1,61.206,44a3.453,3.453,0,0,1-.985-1.02,2.507,2.507,0,0,1-.379-1.361q-.226-2.494-.4-4.687-.077-.932-.151-1.9t-.126-1.84q-.051-.868-.089-1.6t-.037-1.184A2.549,2.549,0,0,1,59.64,28.555Zm-9.827,0a1.915,1.915,0,0,1,1.411-.618,2.665,2.665,0,0,1,1.6.592,3.717,3.717,0,0,1,1.222,1.8q.345.908.782,2.205t.9,2.734q.463,1.437.914,2.885t.8,2.659a5.592,5.592,0,0,1,.159.667,3.766,3.766,0,0,1,.053.618,2.6,2.6,0,0,1-.278,1.247,2.363,2.363,0,0,1-.756.844,3.5,3.5,0,0,1-1.086.492,4.885,4.885,0,0,1-1.272.163,5.537,5.537,0,0,1-1.515-.214A4.568,4.568,0,0,1,51.379,44a3.441,3.441,0,0,1-.985-1.02,2.507,2.507,0,0,1-.379-1.361q-.228-2.494-.4-4.687-.075-.932-.151-1.9t-.126-1.84q-.05-.868-.088-1.6t-.038-1.184A2.549,2.549,0,0,1,49.813,28.555Z"/><path class="cls-3" d="M54.627,30.4H54.7a1.99,1.99,0,0,0-.025-3.979h-.1c-1.835,0-6.78-.571-8.849-3.231a1.989,1.989,0,1,0-3.14,2.443C46.188,30.257,53.73,30.4,54.627,30.4Z"/><path class="cls-3" d="M65.524,57.352a1.988,1.988,0,0,0,1-3.707c-.342-.2-8.529-4.794-21.938-.644a1.989,1.989,0,0,0,1.176,3.8c11.642-3.6,18.494.132,18.78.293A1.989,1.989,0,0,0,65.524,57.352Z"/><path class="cls-1" d="M39.955,64.929s-2.581,7.311-14.749-1.681c0,0-8.861-6.185-10.289-9.723a1.4,1.4,0,0,0-.2-.348h0a1.279,1.279,0,0,1,.4-1.919l7.665-4.134a1.282,1.282,0,0,1,1.646.379,34.287,34.287,0,0,0,4.815,4.9,39.97,39.97,0,0,0,6.288,4.406C37.8,58.11,41.737,61.032,39.955,64.929Z"/><path class="cls-2" d="M24.313,64.49c-.23-.161-2.362-1.664-4.693-3.6-3.413-2.836-5.414-5.054-6.124-6.8a2.808,2.808,0,0,1,.9-4.18l7.665-4.133a2.821,2.821,0,0,1,3.609.825,33.564,33.564,0,0,0,4.578,4.646,38.679,38.679,0,0,0,6.048,4.236c4.841,2.773,6.688,6.423,5.078,10.023a6.108,6.108,0,0,1-3.859,3.439,7.422,7.422,0,0,1-2.187.314C32.305,69.262,28.613,67.665,24.313,64.49Zm14.251-.2c1.255-2.745-1.836-5.034-3.791-6.153a41.647,41.647,0,0,1-6.528-4.576,36.862,36.862,0,0,1-4.925-4.99l-7.228,3.9a3.058,3.058,0,0,1,.243.482c.916,2.267,6.464,6.749,9.746,9.041l.034.024c2.556,1.889,7.312,4.927,10.44,4.023A3.032,3.032,0,0,0,38.519,64.4Z"/><rect class="cls-4" width="97.5" height="101.5"/></g></g></svg>