<svg width="44" height="43" viewBox="0 0 44 43" fill="none" xmlns="http://www.w3.org/2000/svg">
<path d="M22.5405 16.1554C22.5405 14.9194 22.0299 13.734 21.1209 12.8601C20.212 11.9861 18.9792 11.4951 17.6938 11.4951H10.4238V28.9711H18.9055C19.8696 28.9711 20.7941 29.3393 21.4758 29.9948C22.1575 30.6503 22.5405 31.5393 22.5405 32.4663M22.5405 16.1554V32.4663M22.5405 16.1554C22.5405 14.9194 23.0511 13.734 23.96 12.8601C24.869 11.9861 26.1017 11.4951 27.3872 11.4951H34.6572V28.9711H26.1755C25.2114 28.9711 24.2869 29.3393 23.6052 29.9948C22.9235 30.6503 22.5405 31.5393 22.5405 32.4663" stroke="white" stroke-width="2" stroke-linecap="round" stroke-linejoin="round"/>
</svg>
