<svg xmlns="http://www.w3.org/2000/svg" viewBox="0 0 97.5 101.5"><defs><style>.cls-1{fill:#ffe888;}.cls-2{fill:#fff;}.cls-3{fill:#211815;}.cls-4{fill:none;}</style></defs><g id="레이어_2" data-name="레이어 2"><g id="레이어_1-2" data-name="레이어 1"><path class="cls-1" d="M62.863,58.546H61.239c-.109-.035-.215-.08-.326-.1a6.1,6.1,0,0,1-4.467-3.615,8.47,8.47,0,0,1-.452-4.14,1.47,1.47,0,0,1,1.58-1.274A1.521,1.521,0,0,1,59,50.868c.025.557-.008,1.117.013,1.674a2.915,2.915,0,0,0,1.3,2.4,2.876,2.876,0,0,0,3.12.211A2.924,2.924,0,0,0,65.093,52.4q.012-7.938-.011-15.878a1.314,1.314,0,0,0-.347-.787,5.732,5.732,0,0,0-8.881.5,1.6,1.6,0,0,1-2.828.011,5.763,5.763,0,0,0-6.153-2.2,5.9,5.9,0,0,0-3.433,2.356,1.506,1.506,0,0,1-2.526.068c-.105-.149-.191-.31-.285-.465V33.977a2.837,2.837,0,0,0,.084-.393,24.325,24.325,0,0,1,2.792-9.776A25.837,25.837,0,0,1,61.769,10.117c1.084-.227,2.194-.327,3.328-.491,0-.466,0-.937,0-1.409a1.527,1.527,0,1,1,3.044-.009c.005.485,0,.97,0,1.459.125.02.19.035.255.04a24.428,24.428,0,0,1,11.226,3.472c8.262,5.064,12.634,12.452,12.981,22.171a1.528,1.528,0,0,1-1.071,1.7,1.548,1.548,0,0,1-1.818-.751,5.828,5.828,0,0,0-2.088-1.81,5.948,5.948,0,0,0-7.439,1.8,1.493,1.493,0,0,1-1.828.714,2.454,2.454,0,0,1-.989-.8,5.777,5.777,0,0,0-8.844-.508,1.33,1.33,0,0,0-.394.987c.013,5.244.033,10.489,0,15.734A5.9,5.9,0,0,1,64.58,57.98,12.37,12.37,0,0,1,62.863,58.546Z"/><path class="cls-2" d="M63.231,54.234s4.435,1.778-1.417,9.039c0,0-4.038,5.3-6.254,6.084a.836.836,0,0,0-.219.111h0a.789.789,0,0,1-1.171-.294l-2.348-4.828a.789.789,0,0,1,.277-1,21.264,21.264,0,0,0,3.144-2.838,24.691,24.691,0,0,0,2.876-3.758C58.976,55.386,60.878,53.036,63.231,54.234Z"/><path class="cls-1" d="M55.153,70.539a1.734,1.734,0,0,1-1.831-.953l-2.347-4.828a1.738,1.738,0,0,1,.6-2.2,20.409,20.409,0,0,0,2.979-2.7,23.775,23.775,0,0,0,2.765-3.615c1.833-2.909,4.129-3.952,6.3-2.867a3.764,3.764,0,0,1,2.017,2.466c.547,2.093-.491,4.789-3.087,8.011-.1.138-1.086,1.413-2.338,2.8-1.839,2.034-3.259,3.209-4.341,3.594h0A1.728,1.728,0,0,1,55.153,70.539Zm.74-.308h0Zm-3.164-6.177,2.212,4.552a1.922,1.922,0,0,1,.3-.138c1.42-.5,4.323-3.805,5.819-5.767l.016-.02c1.23-1.525,3.221-4.375,2.748-6.325a1.862,1.862,0,0,0-.962-1.253l-.063-.029c-1.658-.844-3.147,1-3.887,2.175a25.7,25.7,0,0,1-2.986,3.9A22.821,22.821,0,0,1,52.729,64.054Z"/><path class="cls-2" d="M39.131,77.4V92.063a2.206,2.206,0,0,0,2.6,1.891h6.3a2.438,2.438,0,0,0,2.216-2.364,3.26,3.26,0,0,0-3.074-3.548V77.4Z"/><path class="cls-1" d="M38.176,92.169l-.006-15.73h9.963V87.2a4.32,4.32,0,0,1,3.074,4.391,3.334,3.334,0,0,1-3.075,3.32l-6.354.006c-.137.012-.268.018-.4.018A3.119,3.119,0,0,1,38.176,92.169Zm11.109-.579A2.333,2.333,0,0,0,47.172,89h-.961V78.361H40.092v13.63c.066.379.347,1.127,1.545,1.007l6.328-.005A1.43,1.43,0,0,0,49.285,91.59Z"/><path class="cls-2" d="M24.111,77.4V92.063a2.205,2.205,0,0,0,2.6,1.891h6.3a2.438,2.438,0,0,0,2.216-2.364,3.26,3.26,0,0,0-3.074-3.548V77.4Z"/><path class="cls-1" d="M23.156,92.169l-.006-15.73h9.963V87.2a4.32,4.32,0,0,1,3.074,4.391,3.334,3.334,0,0,1-3.075,3.32l-6.354.006q-.206.018-.4.018A3.119,3.119,0,0,1,23.156,92.169Zm11.109-.579A2.333,2.333,0,0,0,32.152,89H31.19V78.361H25.072v13.63c.065.379.346,1.127,1.545,1.007l6.328-.005A1.43,1.43,0,0,0,34.265,91.59Z"/><circle class="cls-1" cx="36.121" cy="63.532" r="21.255"/><path class="cls-3" d="M45.745,51.892a1.232,1.232,0,0,1,.907-.4,1.71,1.71,0,0,1,1.028.381,2.387,2.387,0,0,1,.785,1.158q.222.582.5,1.417t.579,1.757q.3.922.587,1.854t.511,1.709a3.3,3.3,0,0,1,.1.429,2.357,2.357,0,0,1,.034.4,1.669,1.669,0,0,1-.178.8,1.522,1.522,0,0,1-.486.543,2.257,2.257,0,0,1-.7.316,3.144,3.144,0,0,1-.817.105,3.553,3.553,0,0,1-.974-.138,2.922,2.922,0,0,1-.877-.4,2.205,2.205,0,0,1-.633-.655,1.62,1.62,0,0,1-.244-.875q-.146-1.6-.259-3.012-.048-.6-.1-1.223c-.032-.415-.059-.81-.081-1.182s-.04-.715-.057-1.028-.024-.567-.024-.762A1.64,1.64,0,0,1,45.745,51.892Zm-6.316,0a1.232,1.232,0,0,1,.907-.4,1.71,1.71,0,0,1,1.028.381,2.4,2.4,0,0,1,.786,1.158q.22.582.5,1.417t.579,1.757q.3.922.587,1.854t.511,1.709a3.3,3.3,0,0,1,.1.429,2.357,2.357,0,0,1,.034.4,1.669,1.669,0,0,1-.178.8,1.513,1.513,0,0,1-.486.543,2.257,2.257,0,0,1-.7.316,3.144,3.144,0,0,1-.817.105,3.553,3.553,0,0,1-.974-.138,2.922,2.922,0,0,1-.877-.4,2.205,2.205,0,0,1-.633-.655,1.62,1.62,0,0,1-.244-.875q-.146-1.6-.259-3.012-.048-.6-.1-1.223c-.032-.415-.059-.81-.081-1.182s-.04-.715-.057-1.028-.024-.567-.024-.762A1.64,1.64,0,0,1,39.429,51.892Z"/><path class="cls-3" d="M40.8,69.727a1.271,1.271,0,0,0,.446-.081,11.735,11.735,0,0,1,7.838-.018,1.279,1.279,0,0,0,.989-2.358,14.142,14.142,0,0,0-9.72-.02,1.279,1.279,0,0,0,.447,2.477Z"/><path class="cls-3" d="M35.546,55.144c4.673,0,6.713-3.171,7.147-4.966a1.279,1.279,0,0,0-2.484-.611c-.094.357-1.031,3.4-5.465,2.981a1.279,1.279,0,0,0-.241,2.546C34.865,55.128,35.212,55.144,35.546,55.144Z"/><path class="cls-2" d="M10.647,80.351s-4.564-1.416.685-9.123c0,0,3.6-5.6,5.744-6.568a.881.881,0,0,0,.21-.128h0a.788.788,0,0,1,1.191.2l2.728,4.623a.789.789,0,0,1-.195,1.022A21.316,21.316,0,0,0,18.1,73.458a24.722,24.722,0,0,0-2.564,3.977C14.8,78.861,13.089,81.356,10.647,80.351Z"/><path class="cls-1" d="M17.387,63.449a1.734,1.734,0,0,1,1.9.8l2.728,4.623a1.74,1.74,0,0,1-.423,2.242,20.381,20.381,0,0,0-2.753,2.929,23.76,23.76,0,0,0-2.465,3.826c-1.593,3.047-3.8,4.271-6.053,3.365a3.763,3.763,0,0,1-2.209-2.3c-.714-2.043.1-4.814,2.432-8.235.094-.146.969-1.495,2.106-2.976,1.669-2.174,2.99-3.46,4.038-3.931h0A1.728,1.728,0,0,1,17.387,63.449Zm-.713.366Zm3.651,5.9-2.572-4.359a1.924,1.924,0,0,1-.291.162c-1.375.617-4,4.14-5.337,6.216l-.014.021c-1.1,1.62-2.859,4.62-2.23,6.526a1.868,1.868,0,0,0,1.06,1.172l.065.024c1.72.708,3.056-1.251,3.7-2.481a25.725,25.725,0,0,1,2.663-4.129A22.814,22.814,0,0,1,20.325,69.718Z"/><rect class="cls-4" width="97.5" height="101.5"/></g></g></svg>