<svg xmlns="http://www.w3.org/2000/svg" viewBox="0 0 97.5 101.5"><defs><style>.cls-1{fill:#86b6ff;}.cls-2{fill:#211815;}.cls-3{fill:none;}</style></defs><g id="레이어_2" data-name="레이어 2"><g id="레이어_1-2" data-name="레이어 1"><circle class="cls-1" cx="48.75" cy="51.345" r="34.999"/><path class="cls-2" d="M32.737,35.048c0,.291-.013.671-.037,1.139s-.053.982-.085,1.54-.072,1.147-.121,1.769-.1,1.233-.145,1.831q-.171,2.109-.388,4.509a2.415,2.415,0,0,1-.365,1.309,3.32,3.32,0,0,1-.948.982,4.429,4.429,0,0,1-1.312.606,5.353,5.353,0,0,1-1.458.206,4.644,4.644,0,0,1-1.223-.158,3.382,3.382,0,0,1-1.046-.472,2.274,2.274,0,0,1-.726-.813,2.491,2.491,0,0,1-.268-1.2,3.584,3.584,0,0,1,.051-.594,5.276,5.276,0,0,1,.153-.642q.332-1.164.765-2.558t.879-2.776q.446-1.382.867-2.63t.752-2.121a3.573,3.573,0,0,1,1.176-1.734,2.565,2.565,0,0,1,1.539-.569,1.844,1.844,0,0,1,1.358.594A2.451,2.451,0,0,1,32.737,35.048Zm9.454,0q0,.436-.036,1.139t-.085,1.54q-.048.836-.121,1.769T41.8,41.327q-.169,2.109-.387,4.509a2.415,2.415,0,0,1-.365,1.309,3.32,3.32,0,0,1-.948.982,4.441,4.441,0,0,1-1.312.606,5.353,5.353,0,0,1-1.458.206,4.657,4.657,0,0,1-1.224-.158,3.377,3.377,0,0,1-1.045-.472,2.286,2.286,0,0,1-.727-.813,2.5,2.5,0,0,1-.267-1.2,3.584,3.584,0,0,1,.051-.594,5.1,5.1,0,0,1,.153-.642q.331-1.164.765-2.558t.879-2.776q.446-1.382.866-2.63t.753-2.121a3.566,3.566,0,0,1,1.176-1.734,2.562,2.562,0,0,1,1.539-.569,1.844,1.844,0,0,1,1.358.594A2.455,2.455,0,0,1,42.191,35.048Z"/><path class="cls-2" d="M33.2,60.145a15.586,15.586,0,0,1-5.212-.827,1.914,1.914,0,0,1,1.366-3.576c.306.113,7.048,2.512,13.6-3.363a1.914,1.914,0,1,1,2.556,2.849A18.112,18.112,0,0,1,33.2,60.145Z"/><rect class="cls-3" width="97.5" height="101.5"/></g></g></svg>